<svg version="1.2" xmlns="http://www.w3.org/2000/svg" xmlns:xlink="http://www.w3.org/1999/xlink" overflow="visible" preserveAspectRatio="none" viewBox="0 0 514 514" width="30" height="30"><g transform="translate(1, 1)"><path d="m511.996094 283.824219c0-.101563.003906-.199219.003906-.296875 0-.058594-.007812-.117188-.007812-.175782-.007813-.410156-.023438-.820312-.0625-1.230468-.003907-.054688-.007813-.113282-.015626-.167969-.042968-.417969-.109374-.832031-.1875-1.246094-.027343-.140625-.054687-.277343-.085937-.417969-.078125-.351562-.167969-.703124-.273437-1.054687-.039063-.136719-.085938-.277344-.132813-.414063-.097656-.300781-.207031-.597656-.328125-.894531-.058594-.148437-.121094-.296875-.1875-.445312-.140625-.320313-.289062-.632813-.453125-.945313-.035156-.066406-.070313-.140625-.109375-.210937l-89.917969-166.359375c-2.621093-4.847656-7.6875-7.867188-13.195312-7.867188-.136719 0-.269531.007813-.40625.011719-.089844 0-.179688-.011719-.273438-.011719h-107.511719c6.78125-8.484375 10.214844-17.292968 10.214844-26.324218 0-12.5625-6.628906-24.691407-19.710937-36.125.632812-1.660157.996093-3.453126.996093-5.335938 0-8.28125-6.71875-15-15-15h-5.027343v-4.3125c0-8.285156-6.71875-15-15-15-8.285157 0-15 6.714844-15 15v4.3125h-5.027344c-8.285156 0-15 6.714844-15 15 0 1.882812.359375 3.675781.992187 5.335938-13.078124 11.429687-19.710937 23.558593-19.710937 36.125 0 9.03125 3.433594 17.835937 10.21875 26.324218h-107.515625c-7.191406 0-13.195312 5.0625-14.65625 11.820313l-87.789062 162.414062c-.03125.058594-.058594.117188-.089844.175781-.171875.320313-.324219.648438-.472656.980469-.0625.144531-.121094.285157-.179688.433594-.121094.300781-.234375.605469-.335938.910156-.042968.128907-.085937.257813-.125.390625-.105468.355469-.195312.710938-.277343 1.074219-.027344.132813-.054688.269531-.082031.40625-.078126.414063-.148438.832031-.1914068 1.25-.0078124.054687-.0078124.109375-.0117187.164063-.0390625.410156-.0585937.824218-.0625 1.238281 0 .058593-.0078125.113281-.0078125.171875 0 .097656.00390625.195312.00390625.292968v.035157c.17187475 60.136719 47.18359375 109.007812 104.95312475 109.007812s104.78125-48.871093 104.953125-109.007812c0-.011719 0-.023438 0-.035157 0-.097656.003906-.195312.003906-.292968 0-.058594-.007812-.117188-.007812-.171875-.007812-.414063-.023438-.828125-.0625-1.238281-.007812-.054688-.007812-.109376-.015625-.164063-.042969-.417969-.109375-.835937-.1875-1.25-.027344-.136719-.054687-.273437-.085937-.410156-.078126-.359375-.167969-.71875-.277344-1.070313-.039063-.132812-.082032-.261718-.125-.390625-.101563-.308593-.210938-.609375-.332032-.910156-.058593-.148437-.121093-.292969-.183593-.4375-.144531-.328125-.300781-.65625-.472657-.976563-.027343-.058593-.058593-.117187-.089843-.175781l-77.960938-144.234375h110.207031v262.761719c-8.628906 2.433594-16.808593 7.003906-23.730468 13.730469l-79.96875 77.648437c-4.382813 4.253907-5.746094 10.738281-3.449219 16.398438 2.292969 5.660156 7.792969 9.359375 13.898437 9.359375h216.5c6.109376 0 11.605469-3.699219 13.902344-9.359375 2.292969-5.660157.929688-12.144531-3.453125-16.398438l-79.964843-77.648437c-6.925782-6.726563-15.105469-11.296875-23.734376-13.730469v-262.761719h111.5625l-77.957031 144.226563c-.039062.070312-.074219.144531-.109375.210937-.164062.3125-.3125.625-.453125.945313-.066406.148437-.128906.296875-.1875.445312-.121093.296875-.230469.59375-.328125.894531-.046875.136719-.09375.277344-.132812.414063-.105469.351563-.195313.703125-.273438 1.054687-.03125.140626-.058594.277344-.085937.417969-.078125.414063-.144531.828125-.191407 1.246094-.003906.054687-.007812.113281-.011718.167969-.039063.410156-.058594.820312-.0625 1.230468 0 .058594-.007813.117188-.007813.175782 0 .097656.003907.195312.003907.296875v.027343c.171874 60.140626 47.183593 109.011719 104.953124 109.011719 57.769532 0 104.785157-48.871093 104.953126-109.011719.003906-.007812.003906-.019531.003906-.027343zm-185.402344 198.175781h-142.542969l53.4375-51.886719c5.015625-4.871093 11.289063-7.332031 17.578125-7.398437.085938 0 .167969.011718.257813.011718.085937 0 .167969-.011718.257812-.011718 6.289063.066406 12.558594 2.527344 17.574219 7.398437zm-71.210938-429.945312c14.824219 8.433593 23.683594 18.976562 23.683594 23.71875 0 6.234374-11.542968 16.59375-23.742187 23.6875-12.210938-7.101563-23.75-17.457032-23.75-23.6875.003906-6.242188 11.585937-16.625 23.808593-23.71875zm-150.425781 310.808593c-36.488281 0-66.972656-27.734375-73.613281-64.335937h147.226562c-6.640624 36.601562-37.125 64.335937-73.613281 64.335937zm-64.796875-94.335937 64.796875-119.886719 64.800781 119.886719zm366.882813-119.882813 64.800781 119.882813h-129.601562zm0 214.21875c-36.488281 0-66.972657-27.734375-73.613281-64.335937h147.226562c-6.644531 36.601562-37.125 64.335937-73.613281 64.335937zm0 0" vector-effect="non-scaling-stroke" style="fill: rgb(255, 255, 255);"/></g></svg>