<svg version="1.2" xmlns="http://www.w3.org/2000/svg" xmlns:xlink="http://www.w3.org/1999/xlink" overflow="visible" preserveAspectRatio="none" viewBox="326.5 666.5 514 514" xml:space="preserve" height="30" width="30" y="0px" x="0px" id="Layer_1_1560935614467"><g transform="translate(1, 1)"><g>
	<path d="M584.57,1132.5c-30.276,0-53.516-21.846-62.676-32H350.5c-5.514,0-10-4.486-10-10v-320c0-5.514,4.486-10,10-10h22v-38   c0-5.514,4.486-10,10-10h136c29.982,0,52.024,8.62,64,24.972c11.976-16.352,34.018-24.972,64-24.972h136c5.514,0,10,4.486,10,10v38   h22c5.514,0,10,4.486,10,10v320c0,5.514-4.486,10-10,10H643.28C625.567,1121.736,605.82,1132.5,584.57,1132.5z M360.5,1080.5h166   c3.1,0,5.973,1.402,7.881,3.848c0.224,0.285,22.363,28.152,50.189,28.152c16.048,0,31.508-9.467,46.03-28.138   c1.877-2.418,4.83-3.862,7.899-3.862h166v-300h-12v262c0,5.514-4.486,10-10,10h-136c-35.832,0-54,12.785-54,38   c0,5.514-4.486,10-10,10s-10-4.486-10-10c0-25.215-18.168-38-54-38h-136c-5.514,0-10-4.486-10-10v-262h-12V1080.5z M646.5,732.5   c-35.832,0-54,12.785-54,38v276.779c12.73-9.685,31.28-14.779,54-14.779h126v-300H646.5z M392.5,1032.5h126   c22.72,0,41.27,5.095,54,14.779V770.5c0-25.215-18.168-38-54-38h-126V1032.5z" vector-effect="non-scaling-stroke" style="fill: rgb(255, 255, 255);"/>
	<path d="M534.5,796.5h-104c-5.514,0-10-4.486-10-10s4.486-10,10-10h104c5.514,0,10,4.486,10,10S540.014,796.5,534.5,796.5z" vector-effect="non-scaling-stroke" style="fill: rgb(255, 255, 255);"/>
	<path d="M534.5,844.5h-104c-5.514,0-10-4.486-10-10s4.486-10,10-10h104c5.514,0,10,4.486,10,10S540.014,844.5,534.5,844.5z" vector-effect="non-scaling-stroke" style="fill: rgb(255, 255, 255);"/>
	<path d="M534.5,892.5h-104c-5.514,0-10-4.486-10-10s4.486-10,10-10h104c5.514,0,10,4.486,10,10S540.014,892.5,534.5,892.5z" vector-effect="non-scaling-stroke" style="fill: rgb(255, 255, 255);"/>
	<path d="M534.5,940.5h-104c-5.514,0-10-4.486-10-10s4.486-10,10-10h104c5.514,0,10,4.486,10,10S540.014,940.5,534.5,940.5z" vector-effect="non-scaling-stroke" style="fill: rgb(255, 255, 255);"/>
	<path d="M534.5,988.5h-104c-5.514,0-10-4.486-10-10s4.486-10,10-10h104c5.514,0,10,4.486,10,10S540.014,988.5,534.5,988.5z" vector-effect="non-scaling-stroke" style="fill: rgb(255, 255, 255);"/>
	<path d="M734.5,796.5h-104c-5.514,0-10-4.486-10-10s4.486-10,10-10h104c5.514,0,10,4.486,10,10S740.014,796.5,734.5,796.5z" vector-effect="non-scaling-stroke" style="fill: rgb(255, 255, 255);"/>
	<path d="M734.5,844.5h-104c-5.514,0-10-4.486-10-10s4.486-10,10-10h104c5.514,0,10,4.486,10,10S740.014,844.5,734.5,844.5z" vector-effect="non-scaling-stroke" style="fill: rgb(255, 255, 255);"/>
	<path d="M734.5,892.5h-104c-5.514,0-10-4.486-10-10s4.486-10,10-10h104c5.514,0,10,4.486,10,10S740.014,892.5,734.5,892.5z" vector-effect="non-scaling-stroke" style="fill: rgb(255, 255, 255);"/>
	<path d="M734.5,940.5h-104c-5.514,0-10-4.486-10-10s4.486-10,10-10h104c5.514,0,10,4.486,10,10S740.014,940.5,734.5,940.5z" vector-effect="non-scaling-stroke" style="fill: rgb(255, 255, 255);"/>
	<path d="M734.5,988.5h-104c-5.514,0-10-4.486-10-10s4.486-10,10-10h104c5.514,0,10,4.486,10,10S740.014,988.5,734.5,988.5z" vector-effect="non-scaling-stroke" style="fill: rgb(255, 255, 255);"/>
</g></g></svg>