<svg version="1.2" xmlns="http://www.w3.org/2000/svg" xmlns:xlink="http://www.w3.org/1999/xlink" overflow="visible" preserveAspectRatio="none" viewBox="0 0 514 514" width="30" height="30"><g transform="translate(1, 1)"><path d="m462.769531 131.945312c11.972657-13.988281 19.230469-32.128906 19.230469-51.945312 0-44.113281-35.886719-80-80-80h-402v30h30v271h178v48.578125c-17.460938 6.195313-30 22.867187-30 42.421875 0 24.8125 20.1875 45 45 45s45-20.1875 45-45c0-19.554688-12.539062-36.226562-30-42.421875v-48.578125h54v42h31.671875l20 169h116.65625l20-169h31.671875v-148c0-30.402344-20.988281-55.988281-49.230469-63.054688zm-60.769531-101.945312c27.570312 0 50 22.429688 50 50s-22.429688 50-50 50-50-22.429688-50-50 22.429688-50 50-50zm-179 377c-8.269531 0-15-6.730469-15-15s6.730469-15 15-15 15 6.730469 15 15-6.730469 15-15 15zm69-212v76h-232v-241h279.617188c-11.007813 13.707031-17.617188 31.09375-17.617188 50 0 19.816406 7.257812 37.957031 19.230469 51.945312-28.242188 7.066407-49.230469 32.652344-49.230469 63.054688zm141.671875 287h-63.34375l-16.449219-139h96.242188zm48.328125-169h-160v-118c0-19.300781 15.699219-35 35-35h90c19.300781 0 35 15.699219 35 35zm0 0" vector-effect="non-scaling-stroke" style="fill: rgb(255, 255, 255);"/></g></svg>